<svg id="Layer_1" data-name="Layer 1" xmlns="http://www.w3.org/2000/svg" viewBox="0 0 432 432"><defs><style>.cls-1{fill:#fff;}</style></defs><path class="cls-1" d="M133,196.58h21.91v8.2H141.3v8h13.57v8.07H141.3v19.87H133Z"/><path class="cls-1" d="M159.93,195.47h8.19v45.26h-8.19Z"/><path class="cls-1" d="M171.32,208.08h8.38l8.48,20.49,9.36-20.49h8.4l-20.46,44.6H177l6.72-14.38Z"/><path class="cls-1" d="M206.12,208.08h4.32l10,23.71,10.42-23.71h.76l10.49,23.71,10.2-23.71h4.37L242.5,240.73h-.78l-10.44-23.38-10.43,23.38h-.79Z"/><path class="cls-1" d="M293.53,208.08v32.65h-4.14v-5.61a18,18,0,0,1-5.93,4.83,16.57,16.57,0,0,1-19-3.4,16.88,16.88,0,0,1-4.9-12.24,16.54,16.54,0,0,1,5-12.06,16.14,16.14,0,0,1,11.91-5,15.42,15.42,0,0,1,7.28,1.71,16.57,16.57,0,0,1,5.72,5.13v-6Zm-16.79,3.21a12.65,12.65,0,0,0-11.2,6.56,13.26,13.26,0,0,0,0,13.2,12.93,12.93,0,0,0,4.75,4.9,12.4,12.4,0,0,0,6.4,1.75,13.07,13.07,0,0,0,6.53-1.74,12.13,12.13,0,0,0,4.75-4.7,13.34,13.34,0,0,0,1.67-6.69,13,13,0,0,0-3.73-9.47A12.36,12.36,0,0,0,276.74,211.29Z"/><path class="cls-1" d="M299.28,208.08h4.47l11,23.8,10.83-23.8H330L315.1,240.73h-.78Z"/><path class="cls-1" d="M363.31,229.9l3.55,1.86a19.52,19.52,0,0,1-4,5.52,15.91,15.91,0,0,1-5.14,3.2,17.9,17.9,0,0,1-6.46,1.09q-8,0-12.49-5.23a17.67,17.67,0,0,1-4.51-11.85,17.41,17.41,0,0,1,3.82-11.07A15.59,15.59,0,0,1,351,207.24a16.11,16.11,0,0,1,13.34,6.33,17.69,17.69,0,0,1,3.61,11.16H338.55a13.3,13.3,0,0,0,3.64,9.33,11.57,11.57,0,0,0,8.68,3.64,14,14,0,0,0,4.86-.87,12.54,12.54,0,0,0,4-2.3A19.68,19.68,0,0,0,363.31,229.9Zm0-8.8a13.8,13.8,0,0,0-2.45-5.37,11.59,11.59,0,0,0-4.25-3.24,13,13,0,0,0-5.56-1.23,12,12,0,0,0-8.26,3.09A14,14,0,0,0,339,221.1Z"/><path class="cls-1" d="M116,202.52,95.26,238c-1.56,2.64-3.87,3.52-5.18,1.85h0a11.29,11.29,0,0,1-.85-12.66l4.42-7.56c1.44-2.36.43-3.65-2.21-2.82L83,219.27A11.3,11.3,0,0,1,71,215.38l0,0c-1.27-1.63.11-3.7,3.08-4.54l39.44-11.53C116.49,198.31,117.66,199.8,116,202.52ZM85.05,222.37l-25.51,7.46c-1.92.55-2.82,1.89-2,2.94l12.39,15.86c.84,1.08,2.33.51,3.35-1.2l13.41-23C87.78,222.72,87,221.75,85.05,222.37Z"/></svg>